<svg xmlns="http://www.w3.org/2000/svg" viewBox="0 0 62.684074585309745 46.684074585309745"
    height="46.684074585309745" width="62.684074585309745">
    <g>
        <svg xmlns="http://www.w3.org/2000/svg" xmlns:xlink="http://www.w3.org/1999/xlink"
            version="1.1" x="8" y="0" viewBox="10.6 10.6 78.80000000000001 78.80000000000001"
            style="enable-background:new 0 0 100 100;" xml:space="preserve"
            height="46.684074585309745" width="46.684074585309745" class="icon-icon-0"
            data-fill-palette-color="accent" id="icon-0">
            <style>
                path {
                fill: #030303;
                }
                @media (prefers-color-scheme: dark) {
                path {
                fill: #fff;
                }
                }
            </style>
            <path d="M77.8 22.2L50 10.6 22.2 22.2 10.6 50l11.5 27.8L50 89.4l27.8-11.5L89.4 50 77.8 22.2zM86.9 48.5l-12.5-3.4c0-0.2 0-0.4 0-0.6 0-2-1.1-3.8-2.7-4.8l5.6-14.7L86.9 48.5zM45.8 60.3c-0.3-2.3-1.6-4.2-3.5-5.3l5-12.1c0.9 0.3 1.8 0.4 2.7 0.4s1.9-0.1 2.7-0.4l6.2 15c-0.8 0.6-1.4 1.4-1.6 2.4H45.8zM61.2 57.2c-0.2 0-0.4 0-0.7 0.1l-6.2-15c1.3-0.7 2.3-1.7 3.1-2.9l6.2 3.4c-0.2 0.6-0.3 1.2-0.3 1.8 0 1.9 1 3.6 2.4 4.6L62 57.3C61.7 57.2 61.5 57.2 61.2 57.2zM38.7 54c-0.8 0-1.6 0.1-2.3 0.4l-5.6-11.6c0.9-0.7 1.5-1.8 1.5-3.1 0 0 0 0 0-0.1l9.3-2.3c0.7 2.1 2.2 3.9 4.2 4.9l-5 12C40.1 54.1 39.4 54 38.7 54zM68.8 39.1c-1.8 0-3.3 0.8-4.3 2.1l-6.2-3.4c0.5-1.1 0.7-2.3 0.7-3.5 0-1-0.2-1.9-0.5-2.8l17-7.1L70 39.2C69.6 39.1 69.2 39.1 68.8 39.1zM41.1 35.6l-9.3 2.3c-0.7-1.3-2-2.2-3.6-2.2-0.1 0-0.2 0-0.3 0l-3.6-11.3 17.1 7.1c-0.3 0.9-0.5 1.8-0.5 2.8C41 34.8 41 35.2 41.1 35.6zM25.4 42.5c0.7 0.7 1.7 1.2 2.8 1.2 0.3 0 0.6 0 0.9-0.1l5.6 11.6c-1 0.6-1.8 1.5-2.4 2.5l-18.7-7.7L25.4 42.5zM63.6 58l3.8-8.1c0.5 0.1 1 0.2 1.5 0.2 2.2 0 4.2-1.3 5-3.2l12.1 3.2L64.5 59C64.3 58.6 63.9 58.3 63.6 58zM76.7 24L76.7 24 76.7 24 76.7 24zM57.8 29.9c-1.4-2.5-4-4.2-6.9-4.5V12.9l24 9.9L57.8 29.9zM49.1 12.9v12.5c-3 0.3-5.5 2-6.9 4.5l-17.1-7.1L49.1 12.9zM22.8 25.2l3.5 11c-1.2 0.7-2 2-2 3.4 0 0.5 0.1 0.9 0.3 1.4l-11.2 7.1L22.8 25.2zM12.7 49.5L12.7 49.5 12.7 49.5 12.7 49.5zM13.2 51.6l18.5 7.7c-0.2 0.6-0.3 1.2-0.3 1.9 0 1.7 0.6 3.2 1.6 4.5l-9.9 10L13.2 51.6zM23.5 76.5L23.5 76.5 23.5 76.5 23.5 76.5zM24.4 76.9l9.9-10c1.2 0.9 2.7 1.5 4.4 1.5 0.7 0 1.4-0.1 2-0.3l7.7 18.7L24.4 76.9zM42.3 67.4c1.9-1.1 3.3-3.1 3.5-5.4h11.5c0.2 1 0.8 1.9 1.7 2.4L50 86.1 42.3 67.4zM60.6 65.1c0.2 0 0.4 0.1 0.6 0.1 0.8 0 1.5-0.2 2.1-0.6l12.3 12.3-24 9.9L60.6 65.1zM76.9 75.6L64.5 63.3c0.4-0.6 0.6-1.3 0.6-2.1 0-0.2 0-0.4-0.1-0.6l21.7-9L76.9 75.6zM87.3 49.5L87.3 49.5 87.3 49.5 87.3 49.5z"  data-fill-palette-color="accent"/></svg>
    </g>
</svg>